<?xml version="1.0" encoding="utf-8"?>
<!-- Generator: Adobe Illustrator 16.0.4, SVG Export Plug-In . SVG Version: 6.00 Build 0)  -->
<!DOCTYPE svg PUBLIC "-//W3C//DTD SVG 1.1//EN" "http://www.w3.org/Graphics/SVG/1.1/DTD/svg11.dtd">
<svg version="1.1" id="Layer_1_copy" xmlns="http://www.w3.org/2000/svg" xmlns:xlink="http://www.w3.org/1999/xlink" x="0px"
	 y="0px" width="38px" height="38px" viewBox="0 0 38 38" enable-background="new 0 0 38 38" xml:space="preserve">
<path fill="#F1B521" d="M10,14.092c0-4,2-8,0-10s-3,2-2,2c1.414,0,2,2,1,5S10,15.092,10,14.092z"/>
<path fill="#F1B521" d="M6.125,14.092c0-4,2-8,0-10s-3,2-2,2c1.414,0,2,2,1,5S6.125,15.092,6.125,14.092z"/>
<path fill="#F1B521" d="M37,33.467c0,1-1,1-2,1s-18,0-23,0s-7.272-3.09-8-6c-1-4,2-11,0-12c-2-1-3-1-3-3s4.47-5.265,7-4
	c4,2,2.767,6.932,2,10c-0.88,3.521,1.115,3.595,5,5c4.939,1.787,12.32,4.439,14,5C32,30.467,37,32.467,37,33.467z"/>
<path display="none" fill="#FFCC4D" d="M11.925,25.936c2.887,1,3.849,9,13.472,9c6.377,0,8.66-5.479,8.66-11
	c0-5.522-5.17-10-11.547-10S11.012,25.619,11.925,25.936z"/>
<path display="none" fill="#FFAC33" d="M25.914,34.938c1.708,0,3.389-0.479,4.893-1.418c2.186-1.36,3.729-3.526,4.348-6.098
	c1.531-6.363-2.205-12.834-8.328-14.425c-7.393-1.923-14.919,2.769-16.768,10.455c-0.258,1.071,0.369,2.157,1.399,2.426
	c1.027,0.271,2.076-0.383,2.335-1.455c1.334-5.546,6.761-8.93,12.101-7.544c4.062,1.056,6.543,5.352,5.527,9.574
	c-0.369,1.533-1.29,2.826-2.594,3.639c-1.305,0.812-2.836,1.051-4.311,0.666c-1.08-0.279-1.992-0.98-2.564-1.973
	c-0.572-0.994-0.74-2.158-0.469-3.281c0.189-0.795,0.668-1.465,1.344-1.887s1.527-0.707,2.234-0.346
	c1.297,0.666,1.297,2.666,0.336,3.666c-0.752,0.78,1.604,1.063,2.887,0c1.15-0.955,1.645-2.492,1.068-4.199
	c-0.582-1.725-1.806-2.942-3.357-3.347c-1.762-0.458-3.59-0.176-5.148,0.796c-1.557,0.972-2.657,2.516-3.098,4.348
	c-0.52,2.158-0.199,4.398,0.903,6.307c1.103,1.91,2.853,3.258,4.931,3.797C24.355,34.838,25.139,34.938,25.914,34.938z"/>
<circle fill="#00458C" cx="4.5" cy="11.031" r="0.5"/>
<circle fill="#00458C" cx="6.5" cy="12.031" r="0.5"/>
</svg>
